# xmcd
#
# Track frame offsets: 
#        150
#        4975
#        17728
#        47434
#        81007
#        95370
#        127147
#        155797
#        176141
#        192271
#
# Disc length: 2747 seconds
#
# Revision: 1
# Processed by: cddbd v1.5.2PL0 Copyright (c) Steve Scherf et al.
# Submitted via: ExactAudioCopy v0.95b4
#
DISCID=7e0ab90a
DTITLE=James Booker - Live at Montreux - The James Booker Session
DYEAR=1978
DGENRE=NOLA
TTITLE0=Medley: Pretty Baby, Winin' Boy Blues
TTITLE1=Pixie
TTITLE2=Medley: Penny Lane, I Saw Her Standing There, One Hell Of  Ner
TTITLE2=ve
TTITLE3=True
TTITLE4=The Long Last Laugh
TTITLE5=Junco Partner
TTITLE6=Look What I've Got
TTITLE7=Medley: Tipitina, The Grass Looks Greener
TTITLE8=Papa Was A Rascal
TTITLE9=Let's Make A Better World
EXTD=
EXTT0=
EXTT1=
EXTT2=
EXTT3=
EXTT4=
EXTT5=
EXTT6=
EXTT7=
EXTT8=
EXTT9=
PLAYORDER=
